<svg xmlns="http://www.w3.org/2000/svg" width="1280" height="720">
  <style>
    #label {
      fill: #b0b5b9;
    }
    #counter {
      fill: #494949;
    }
    @media (prefers-color-scheme: dark) {
      svg {
        background-color: #181a1b;
      }
      #label {
        fill: #b9b3aa;
      }
      #counter {
        fill: #bab4ab;
      }
    }
  </style>
  <path
    id="label"
    d="M371.6 291.82h3.06l8.65 20.07h-4.07l-1.86-4.57h-8.7l-1.84 4.57h-3.98Zm4.52 12.43-3.08-8.16-3.16 8.16zm27.26 6.16c-2.48 1.33-5.26 2-8.32 2-1.54 0-2.96-.25-4.27-.74a9.9 9.9 0 0 1-3.33-2.13 9.92 9.92 0 0 1-2.22-3.32 11.29 11.29 0 0 1-.78-4.27c0-1.6.27-3.06.78-4.36a9.83 9.83 0 0 1 5.55-5.5 11.66 11.66 0 0 1 4.28-.77c1.52 0 2.95.2 4.3.56a9.09 9.09 0 0 1 3.6 1.95l-2.65 2.67a7.9 7.9 0 0 0-8.05-1.4 6.58 6.58 0 0 0-3.57 3.84 8.85 8.85 0 0 0 0 5.78 6.74 6.74 0 0 0 3.57 3.9c.84.36 1.78.56 2.83.56a12.1 12.1 0 0 0 2.57-.26c.78-.17 1.5-.44 2.14-.8v-4.73h-4.1v-3.22h7.67zm4.2-18.59h13.3v3.23h-9.73v4.93h9.22v3.25h-9.22v5.44h10.24v3.22h-13.82zm0 0"
    aria-label="AGE"
  />
  <path
    id="counter"
    d="M400.03 324.98a41.56 41.56 0 0 0-12.62 1.84 31.42 31.42 0 0 0-10.2 5.39 27.6 27.6 0 0 0-7.15 8.85 32.26 32.26 0 0 0-3.33 12.25l17.85 1.43a15.67 15.67 0 0 1 4.96-9.92c2.74-2.46 6.24-3.69 10.49-3.69a16.7 16.7 0 0 1 5.58.92 14.3 14.3 0 0 1 4.6 2.63 13.06 13.06 0 0 1 3.19 4.11c.81 1.61 1.22 3.44 1.22 5.52 0 1.7-.34 3.34-1 4.91a23.84 23.84 0 0 1-2.48 4.43 34.25 34.25 0 0 1-3.32 4.05c-1.22 1.26-2.4 2.47-3.54 3.6l-38.95 37.68v18h67.13v-15.3h-46.45l31.03-28.77a63.98 63.98 0 0 0 11.1-13.08c2.88-4.58 4.32-10.05 4.32-16.37a29.13 29.13 0 0 0-2.55-12.6 24.11 24.11 0 0 0-6.94-8.86 30.84 30.84 0 0 0-10.26-5.25 43.72 43.72 0 0 0-12.68-1.77zm81.03 0c-3.68 0-7.24.44-10.65 1.3a32.79 32.79 0 0 0-9.34 3.9 26.88 26.88 0 0 0-7.38 6.7 30.4 30.4 0 0 0-4.8 9.64l18.01 4.81a16.38 16.38 0 0 1 5.87-8.14 15.1 15.1 0 0 1 9.12-2.91c4.25 0 7.69 1.22 10.34 3.69 2.66 2.45 3.99 5.62 3.99 9.49 0 3.02-.58 5.43-1.71 7.23a11.42 11.42 0 0 1-4.47 4.11 18.68 18.68 0 0 1-6.25 1.85c-2.3.28-4.67.42-7.14.42h-4.4v15.3h4.14c2.53 0 5.13.18 7.77.57a22.28 22.28 0 0 1 7.14 2.18 13.7 13.7 0 0 1 5.26 4.68c1.37 2.03 2.05 4.64 2.05 7.85a15.05 15.05 0 0 1-5.05 11.39 17.25 17.25 0 0 1-5.35 3.2 18.4 18.4 0 0 1-6.45 1.12c-4.55 0-8.12-1.12-10.77-3.4-2.64-2.27-4.49-5.48-5.52-9.63l-18.14 4.81a32.6 32.6 0 0 0 4.96 10.72 28.57 28.57 0 0 0 7.72 7.28 32.77 32.77 0 0 0 9.99 4.16c3.69.9 7.61 1.38 11.74 1.38 4.44 0 8.72-.65 12.81-1.92a32.48 32.48 0 0 0 10.86-5.67 27.52 27.52 0 0 0 7.44-9.28c1.84-3.69 2.76-7.94 2.76-12.76a26.65 26.65 0 0 0-4.95-16.13c-3.3-4.54-8.17-7.29-14.6-8.23v-.3a21.22 21.22 0 0 0 12.61-8.26c3.03-4.2 4.54-9 4.54-14.4a24.88 24.88 0 0 0-2.62-11.66 24.57 24.57 0 0 0-7.02-8.33 31.05 31.05 0 0 0-10.21-5.05 43.48 43.48 0 0 0-12.3-1.71zm422.6 9.53a17.88 17.88 0 0 0-4.6.51 13.1 13.1 0 0 0-3.73 1.58 10.4 10.4 0 0 0-2.96 2.7 12.17 12.17 0 0 0-1.93 3.83l7.2 1.92a6.52 6.52 0 0 1 2.36-3.24 5.95 5.95 0 0 1 3.65-1.18c1.7 0 3.08.48 4.14 1.47a4.93 4.93 0 0 1 1.58 3.8c0 1.22-.22 2.18-.69 2.9a4.5 4.5 0 0 1-1.77 1.64c-.74.38-1.57.63-2.51.74-.93.1-1.87.16-2.85.16h-1.75l.01 6.14h1.62a22.43 22.43 0 0 1 3.13.22 9.31 9.31 0 0 1 2.87.88 5.6 5.6 0 0 1 2.09 1.86c.55.83.83 1.88.83 3.16a5.9 5.9 0 0 1-2.03 4.54 7.19 7.19 0 0 1-4.72 1.73c-1.81 0-3.24-.44-4.3-1.36a7.11 7.11 0 0 1-2.22-3.85l-7.26 1.92a11.72 11.72 0 0 0 9.08 8.87 19.33 19.33 0 0 0 4.7.56c1.77 0 3.49-.27 5.14-.77a13.13 13.13 0 0 0 4.34-2.27 10.98 10.98 0 0 0 4.07-8.82 10.67 10.67 0 0 0-2-6.45c-1.3-1.82-3.25-2.92-5.84-3.3v-.11a8.35 8.35 0 0 0 5.05-3.3 9.6 9.6 0 0 0 1.81-5.76c0-1.78-.35-3.35-1.04-4.68a9.77 9.77 0 0 0-2.8-3.33 12.23 12.23 0 0 0-4.08-2 17.88 17.88 0 0 0-4.58-.7zm-268 .02c-.76 0-1.63.09-2.63.24a12.04 12.04 0 0 0-6.32 3.04 13.5 13.5 0 0 0-2.77 3.69 21.85 21.85 0 0 0-2.04 5.65c-.5 2.26-.75 4.96-.75 8.11a37.76 37.76 0 0 0 .74 8.16 22.62 22.62 0 0 0 2.03 5.67 13.55 13.55 0 0 0 2.78 3.66 12.6 12.6 0 0 0 6.31 3.04c1 .14 1.9.23 2.63.23.75 0 1.62-.09 2.62-.23a12.11 12.11 0 0 0 6.32-3.04 13.37 13.37 0 0 0 2.8-3.66 21.64 21.64 0 0 0 2.02-5.67c.52-2.26.77-4.97.77-8.14 0-3.17-.25-5.88-.77-8.12a21.44 21.44 0 0 0-2.03-5.66 12.77 12.77 0 0 0-2.8-3.7 11.79 11.79 0 0 0-6.3-3.03c-1-.15-1.88-.24-2.62-.24zm67.08 0c-1.7 0-3.32.25-4.8.73a11.86 11.86 0 0 0-3.92 2.02 9.74 9.74 0 0 0-2.62 3.29 10.2 10.2 0 0 0-.96 4.5 10.62 10.62 0 0 0 1.5 5.68 7.75 7.75 0 0 0 4.58 3.32v.1c-.96.2-1.88.6-2.76 1.18-.89.6-1.68 1.32-2.36 2.17a10.1 10.1 0 0 0-2.22 6.43 11.46 11.46 0 0 0 8.25 11.3c1.65.5 3.41.77 5.31.77 1.85 0 3.62-.26 5.27-.76a11.17 11.17 0 0 0 7.19-6.08 11.84 11.84 0 0 0 1.07-5.23c0-1.25-.19-2.43-.59-3.52a10.1 10.1 0 0 0-3.97-5.06 7.71 7.71 0 0 0-2.74-1.18v-.12a7.67 7.67 0 0 0 4.57-3.32 10.73 10.73 0 0 0 1.5-5.68 9.66 9.66 0 0 0-3.62-7.8 11.38 11.38 0 0 0-3.9-2.01 15.73 15.73 0 0 0-4.78-.73zm89.64.65-.4 21.66c1.21-.6 2.52-1.06 3.98-1.4 1.47-.35 2.94-.55 4.42-.55 1.24 0 2.42.15 3.57.45a8.43 8.43 0 0 1 3 1.36 6.58 6.58 0 0 1 2.06 2.4c.5.99.77 2.17.77 3.57a7.38 7.38 0 0 1-.52 2.74 6.34 6.34 0 0 1-3.66 3.62c-.85.34-1.77.5-2.77.5a6.8 6.8 0 0 1-4.28-1.25 6.52 6.52 0 0 1-2.32-3.4l-7.14 1.94a12.4 12.4 0 0 0 4.78 6.93c2.24 1.5 4.99 2.26 8.2 2.26 2.03 0 3.94-.33 5.72-.97a12.62 12.62 0 0 0 7.67-7.12c.73-1.72 1.1-3.66 1.1-5.81 0-2.04-.34-3.88-.99-5.5a11.74 11.74 0 0 0-6.96-6.87 14.83 14.83 0 0 0-5.4-.94c-.74 0-1.49.04-2.3.12-.83.09-1.5.2-2 .38l.15-7.98h16.15v-6.14h-22.83zm30.13 0v6.5h19.6l-16.35 33.65h7.96l16.07-33.9v-6.25h-27.28zm36.95 0-.39 21.66c1.18-.6 2.51-1.06 3.99-1.4a18.5 18.5 0 0 1 4.4-.55c1.23 0 2.43.15 3.57.45a8.43 8.43 0 0 1 2.99 1.36 6.58 6.58 0 0 1 2.07 2.4c.51.99.76 2.17.76 3.57a7.38 7.38 0 0 1-.51 2.74 6.34 6.34 0 0 1-3.65 3.62c-.85.34-1.77.5-2.8.5a6.74 6.74 0 0 1-4.25-1.25 6.54 6.54 0 0 1-2.33-3.4l-7.14 1.94a12.4 12.4 0 0 0 4.8 6.93c2.22 1.5 4.96 2.26 8.18 2.26 2.02 0 3.94-.33 5.71-.97a12.62 12.62 0 0 0 7.67-7.12c.74-1.72 1.11-3.66 1.11-5.81 0-2.04-.33-3.88-.99-5.5a11.74 11.74 0 0 0-6.95-6.87 14.96 14.96 0 0 0-5.41-.94c-.73 0-1.5.04-2.3.12-.83.09-1.5.2-2.01.38l.16-7.98h16.14v-6.14h-22.82zm-289.58.02-16.15 25.23v6.74h17.05v8.16h6.8v-8.16h5.84v-6.12h-5.84V335.2h-7.7zm17.83 0v6.49h19.61l-16.36 33.64h7.97l16.05-33.9v-6.23h-27.27zm80.52 0-12.13 10.09 3.97 4.7 7.53-6.96.01 32.3h6.79V335.2h-6.17zm67.08 0-12.12 10.09 3.97 4.7 7.53-6.96.01 32.3h6.79V335.2h-6.18zm34.23 0-10.24 16.15a35.81 35.81 0 0 0-2.73 5.26 15.5 15.5 0 0 0-1.03 5.75c0 2.11.35 4.01 1.03 5.71a11.98 11.98 0 0 0 2.95 4.3 13.22 13.22 0 0 0 4.52 2.71c1.74.62 3.67.94 5.78.94 2.04 0 3.94-.32 5.68-.97a12.45 12.45 0 0 0 7.53-7.1 14.63 14.63 0 0 0 .2-10.6 12 12 0 0 0-6.31-6.82 12.22 12.22 0 0 0-6.95-.86c-.7.1-1.26.27-1.67.5l-.12-.12 9.64-14.84-8.28-.01zm-66.8 5.12a5.31 5.31 0 0 1 3.93 1.59 5.19 5.19 0 0 1 1.58 3.84 5.46 5.46 0 0 1-5.5 5.6 5.16 5.16 0 0 1-4.05-1.62 5.73 5.73 0 0 1-1.45-3.98 5.49 5.49 0 0 1 1.44-3.84 5.2 5.2 0 0 1 4.05-1.6zm-67.09.66a5.47 5.47 0 0 1 4.09 1.55 9.76 9.76 0 0 1 2.32 3.73 19.68 19.68 0 0 1 1.06 4.68c.16 1.64.25 3.08.25 4.32 0 1.24-.09 2.69-.25 4.34a20.05 20.05 0 0 1-1.06 4.66 9.99 9.99 0 0 1-2.32 3.77 5.51 5.51 0 0 1-4.09 1.52c-1.7 0-3.05-.5-4.07-1.52a10.6 10.6 0 0 1-2.33-3.77 19.86 19.86 0 0 1-1.03-4.66 41 41 0 0 1-.26-4.34c0-1.24.08-2.68.26-4.32.16-1.65.51-3.2 1.03-4.68a10.03 10.03 0 0 1 2.33-3.73 5.46 5.46 0 0 1 4.07-1.55zm-64.98 3.87h.1v16.2h-10.13l10.03-16.2zm199.34 10.06a7.2 7.2 0 0 1 6.71 4.46 7.19 7.19 0 0 1-1.54 8.04 7.4 7.4 0 0 1-5.17 2.12c-1.03 0-1.99-.18-2.88-.55a7.93 7.93 0 0 1-2.33-1.57 7.38 7.38 0 0 1-2.12-5.18 7.23 7.23 0 0 1 7.33-7.32zm-67.27 1.9a7.48 7.48 0 0 1 2.6.46 6.34 6.34 0 0 1 4.15 5.83 6.12 6.12 0 0 1-1.92 4.68 6.76 6.76 0 0 1-4.83 1.77c-1.97 0-3.6-.6-4.87-1.77a6.18 6.18 0 0 1-1.88-4.68 5.9 5.9 0 0 1 .53-2.51c.37-.78.85-1.46 1.44-2.04a7.47 7.47 0 0 1 4.78-1.74zM543.4 366.92c-1.25 0-2.33.44-3.21 1.33a4.15 4.15 0 0 0-1.33 3.1v.01a4.25 4.25 0 0 0 1.36 3.07c.42.37.9.66 1.46.9.53.22 1.12.34 1.71.34a4.43 4.43 0 0 0 3.22-1.3 4.25 4.25 0 0 0-.03-6.2 4.59 4.59 0 0 0-3.18-1.25z"
  />
</svg>
